<svg width="32" height="22" viewBox="0 0 32 22" fill="none" xmlns="http://www.w3.org/2000/svg">
<path d="M1.77778 21.3333H30.2222C31.2 21.3333 32 20.5333 32 19.5556C32 18.5778 31.2 17.7778 30.2222 17.7778H1.77778C0.8 17.7778 0 18.5778 0 19.5556C0 20.5333 0.8 21.3333 1.77778 21.3333ZM1.77778 12.4444H30.2222C31.2 12.4444 32 11.6444 32 10.6667C32 9.68889 31.2 8.88889 30.2222 8.88889H1.77778C0.8 8.88889 0 9.68889 0 10.6667C0 11.6444 0.8 12.4444 1.77778 12.4444ZM0 1.77778C0 2.75556 0.8 3.55556 1.77778 3.55556H30.2222C31.2 3.55556 32 2.75556 32 1.77778C32 0.8 31.2 0 30.2222 0H1.77778C0.8 0 0 0.8 0 1.77778Z" fill="#ADB9C7"/>
</svg>
